<svg width="24" height="24" viewBox="0 0 24 24" fill="none" xmlns="http://www.w3.org/2000/svg">
<mask id="mask0_449_953" style="mask-type:alpha" maskUnits="userSpaceOnUse" x="0" y="0" width="24" height="24">
<rect width="24" height="24" fill="#D9D9D9"/>
</mask>
<g mask="url(#mask0_449_953)">
<path d="M4.87498 12.025L8.72498 15.875C8.89998 16.05 8.98956 16.2667 8.99373 16.525C8.99789 16.7834 8.90831 17.0042 8.72498 17.1875C8.54164 17.3709 8.32289 17.4625 8.06873 17.4625C7.81456 17.4625 7.59581 17.3709 7.41248 17.1875L2.87498 12.65C2.78331 12.5584 2.71456 12.4563 2.66873 12.3438C2.62289 12.2313 2.59998 12.1125 2.59998 11.9875C2.59998 11.8625 2.62289 11.7438 2.66873 11.6313C2.71456 11.5188 2.78331 11.4167 2.87498 11.325L7.38748 6.81252C7.57914 6.62086 7.80414 6.52502 8.06248 6.52502C8.32081 6.52502 8.54581 6.62086 8.73748 6.81252C8.92914 7.00419 9.02498 7.22919 9.02498 7.48752C9.02498 7.74586 8.92914 7.97086 8.73748 8.16252L4.87498 12.025ZM19.125 11.975L15.275 8.12502C15.1 7.95002 15.0104 7.73336 15.0062 7.47502C15.0021 7.21669 15.0916 6.99586 15.275 6.81252C15.4583 6.62919 15.6771 6.53752 15.9312 6.53752C16.1854 6.53752 16.4041 6.62919 16.5875 6.81252L21.125 11.35C21.2166 11.4417 21.2854 11.5438 21.3312 11.6563C21.3771 11.7688 21.4 11.8875 21.4 12.0125C21.4 12.1375 21.3771 12.2563 21.3312 12.3688C21.2854 12.4813 21.2166 12.5834 21.125 12.675L16.6125 17.1875C16.4208 17.3792 16.2 17.4709 15.95 17.4625C15.7 17.4542 15.4791 17.3542 15.2875 17.1625C15.0958 16.9709 15 16.7459 15 16.4875C15 16.2292 15.0958 16.0042 15.2875 15.8125L19.125 11.975Z" fill="#F3F4F5"/>
</g>
</svg>